<svg width="107" height="51" viewBox="0 0 107 51" fill="none" xmlns="http://www.w3.org/2000/svg">
<path d="M17.3764 49.4708C14.7739 49.4477 12.3034 48.9565 9.96518 47.9971C7.66996 46.9954 5.69814 45.6125 4.0497 43.8485C2.4443 42.0422 1.35372 39.9205 0.777954 37.4833L8.41747 34.8629C9.16616 37.0456 10.3247 38.7199 11.8931 39.8858C13.4619 41.0091 15.3129 41.5802 17.4461 41.5991C19.1527 41.6142 20.6275 41.3073 21.8705 40.6783C23.1561 40.0496 24.1669 39.1412 24.9027 37.953C25.639 36.7222 26.0145 35.2748 26.0292 33.6108C26.044 31.9469 25.6938 30.5357 24.9787 29.3774C24.3067 28.1767 23.3335 27.2507 22.0592 26.5994C20.7849 25.9481 19.2731 25.6147 17.5239 25.5992C16.7132 25.592 15.8592 25.6698 14.9617 25.8325C14.1069 25.9956 13.3367 26.2448 12.651 26.58L10.7039 22.4026L23.1802 8.4326L3.72494 8.26025L3.79013 0.900539L33.037 1.15963L32.9763 8.00736L20.4321 22.4248L20.589 19.1621C23.4472 19.2301 25.9376 19.8708 28.0603 21.0843C30.183 22.2978 31.8323 23.9552 33.0084 26.0564C34.1845 28.1575 34.7601 30.616 34.7352 33.4319C34.708 36.5038 33.9368 39.2704 32.4216 41.7318C30.9067 44.1504 28.8418 46.0522 26.2268 47.4371C23.6117 48.822 20.6616 49.4999 17.3764 49.4708ZM56.7559 49.8196C54.2386 49.7973 51.8322 49.3067 49.5366 48.3476C47.2837 47.389 45.3328 46.049 43.684 44.3276C42.0782 42.564 40.9873 40.4849 40.4111 38.0904L47.9866 35.4694C48.6927 37.6517 49.8516 39.2834 51.4634 40.3644C53.0756 41.4027 54.863 41.9306 56.8256 41.948C58.4469 41.9623 59.8792 41.6337 61.1225 40.962C62.4089 40.248 63.3989 39.2754 64.0925 38.0442C64.7864 36.7703 65.1408 35.3014 65.1555 33.6374C65.1703 31.9735 64.8205 30.5197 64.1061 29.276C63.4345 28.0326 62.483 27.0642 61.2518 26.3706C60.0209 25.6343 58.5948 25.259 56.9736 25.2446C55.3096 25.2299 53.7918 25.5791 52.4201 26.2923C51.0911 27.0059 50.1218 28.0427 49.5124 29.4027L42.4229 27.7398L46.4335 1.2783L72.4164 1.50848L72.3512 8.86819L49.8241 8.66863L53.1214 4.92169L50.2567 24.8651L47.7789 22.7951C48.989 21.0564 50.451 19.7893 52.1648 18.9938C53.9212 18.1986 56.0367 17.812 58.5113 17.8339C61.6685 17.8619 64.393 18.5687 66.6848 19.9544C69.0193 21.3405 70.8161 23.2125 72.0753 25.5704C73.3344 27.9283 73.9504 30.6432 73.9232 33.7151C73.896 36.787 73.1248 39.5536 71.6096 42.0149C70.0944 44.4763 68.0506 46.3996 65.4782 47.7848C62.9059 49.1701 59.9984 49.8484 56.7559 49.8196Z" fill="url(#paint0_linear_0_255)"/>
<path d="M92.9455 26.6513C90.5563 26.6302 88.3639 26.056 86.3685 24.929C84.4158 23.8023 82.8506 22.2737 81.673 20.3432C80.4953 18.4127 79.9175 16.2102 79.9394 13.7356C79.9613 11.261 80.5781 9.06907 81.7897 7.15973C83.0014 5.25039 84.5934 3.74977 86.5658 2.65787C88.5382 1.56596 90.7404 1.03078 93.1723 1.05232C95.5615 1.07349 97.7325 1.64741 99.6853 2.77409C101.681 3.90114 103.246 5.42973 104.381 7.35986C105.558 9.29037 106.136 11.4929 106.114 13.9675C106.092 16.442 105.476 18.634 104.264 20.5433C103.095 22.4531 101.503 23.9537 99.488 25.0452C97.5156 26.1371 95.3348 26.6725 92.9455 26.6513ZM92.9994 20.5716C94.2367 20.5825 95.3059 20.2933 96.2072 19.7039C97.1084 19.1146 97.8194 18.3315 98.3401 17.3547C98.8611 16.3353 99.1273 15.1856 99.1387 13.9057C99.1504 12.5831 98.8833 11.4287 98.3373 10.4424C97.8344 9.41395 97.1374 8.61841 96.2464 8.05583C95.3557 7.45058 94.3131 7.14267 93.1184 7.13209C91.9238 7.1215 90.8545 7.41071 89.9106 7.9997C88.9671 8.54603 88.2348 9.32891 87.7137 10.3483C87.1927 11.3678 86.9265 12.5174 86.9151 13.7974C86.9038 15.0773 87.1496 16.2316 87.6525 17.2601C88.1558 18.2459 88.8741 19.0416 89.8074 19.6472C90.7408 20.2529 91.8048 20.561 92.9994 20.5716Z" fill="#91B3D2"/>
<defs>
<linearGradient id="paint0_linear_0_255" x1="54.2233" y1="-17.9734" x2="52.8782" y2="133.861" gradientUnits="userSpaceOnUse">
<stop offset="0.291667" stop-color="#296399"/>
<stop offset="1" stop-color="white" stop-opacity="0"/>
</linearGradient>
</defs>
</svg>
